<?xml version="1.0" standalone="no"?>
<!DOCTYPE svg PUBLIC "-//W3C//DTD SVG 20010904//EN"
 "http://www.w3.org/TR/2001/REC-SVG-20010904/DTD/svg10.dtd">
<svg version="1.0" xmlns="http://www.w3.org/2000/svg"
 width="460.000000pt" height="460.000000pt" viewBox="0 0 460.000000 460.000000"
 preserveAspectRatio="xMidYMid meet">
<metadata>
Created by potrace 1.14, written by Peter Selinger 2001-2017
</metadata>
<g transform="translate(0.000000,460.000000) scale(0.100000,-0.100000)"
fill="#000000" stroke="none">
<path d="M2100 3799 c-19 -5 -75 -9 -125 -9 -142 -2 -266 -39 -372 -111 -96
-66 -263 -253 -283 -316 -18 -56 -88 -220 -122 -284 -53 -103 -48 -315 12
-501 29 -91 30 -112 5 -122 -53 -20 -64 -174 -22 -287 61 -161 166 -264 296
-289 30 -6 56 -12 58 -14 6 -6 44 -471 61 -761 l17 -290 28 -3 c24 -3 31 3 29
28 0 3 -5 102 -11 220 -14 269 -38 577 -64 795 -1 14 6 21 28 25 23 4 31 11
33 32 l3 26 -93 -1 c-78 -2 -100 2 -138 20 -118 58 -208 209 -211 352 -3 108
44 148 162 138 38 -3 89 -15 115 -26 52 -23 64 -21 64 14 0 12 6 25 14 28 20
8 56 -21 56 -45 0 -48 34 -134 65 -165 51 -51 61 -45 69 44 3 42 6 96 6 120
l0 43 89 0 c95 0 101 -3 101 -54 0 -42 57 -203 93 -262 43 -72 87 -114 150
-148 183 -96 365 -27 455 175 37 81 49 133 58 236 l7 81 45 6 c25 3 75 6 112
6 l67 0 7 -55 c10 -85 53 -205 94 -261 74 -102 151 -145 275 -152 l79 -5 -7
-36 c-17 -96 -72 -257 -121 -357 -94 -190 -196 -286 -359 -336 -56 -18 -95
-22 -195 -22 -160 0 -263 24 -415 99 -60 30 -111 52 -113 50 -21 -20 69 -76
208 -130 86 -33 149 -48 247 -60 l53 -7 2 -211 3 -212 25 0 25 0 3 211 2 210
93 17 c165 29 313 122 392 247 90 142 154 297 187 455 18 86 25 105 58 143 70
79 75 97 75 282 0 213 -11 259 -70 300 -24 17 -48 30 -54 30 -17 0 -33 41 -28
73 3 21 -3 41 -19 65 -13 19 -29 53 -35 76 -10 37 -35 102 -77 196 -10 23 -16
66 -16 125 -1 81 -4 95 -30 140 -55 95 -147 187 -227 227 -119 61 -215 98
-292 114 -40 8 -107 24 -150 35 -222 56 -380 72 -477 48z m910 -539 c16 -12
60 -37 97 -58 38 -20 76 -41 84 -47 19 -11 73 -116 99 -190 10 -27 21 -58 25
-69 7 -16 4 -17 -24 -11 -93 20 -256 -75 -208 -122 13 -13 20 -12 63 8 35 16
68 23 115 23 70 0 99 -13 99 -44 0 -14 -13 -18 -72 -23 -58 -5 -90 -15 -153
-46 -44 -22 -95 -54 -114 -71 -26 -23 -37 -27 -51 -20 -13 7 -21 7 -25 0 -3
-5 -42 -10 -85 -10 -44 0 -100 -5 -124 -12 -41 -11 -47 -10 -78 13 -218 165
-458 156 -670 -25 -40 -35 -44 -36 -125 -36 l-83 0 0 123 c0 67 7 170 15 229
20 154 60 224 167 298 100 68 202 82 398 54 199 -28 217 -28 325 -1 55 15 120
33 145 41 69 22 146 20 180 -4z m362 -602 c37 -29 77 -470 49 -542 -11 -29
-12 -29 -84 -24 -169 11 -269 122 -312 346 l-15 76 26 27 c86 90 283 158 336
117z m-862 -60 c41 -19 95 -50 119 -68 l43 -32 -7 -80 c-16 -193 -81 -324
-187 -379 -43 -22 -145 -26 -199 -8 -108 37 -188 149 -239 332 -32 115 -29
136 29 179 44 33 133 77 186 91 11 3 56 5 100 3 67 -2 92 -8 155 -38z m973 14
c33 -36 49 -301 24 -396 -23 -87 -34 -65 -29 56 4 102 -18 323 -34 349 -10 17
23 9 39 -9z m-1912 -41 c16 -16 29 -34 29 -40 0 -7 -40 -11 -116 -11 -127 0
-131 3 -56 51 61 38 104 38 143 0z"/>
<path d="M2246 2840 c-57 -18 -136 -63 -141 -81 -14 -44 11 -48 103 -19 77 24
184 26 265 5 86 -22 107 -20 107 11 0 21 -10 30 -67 57 -58 27 -81 32 -153 34
-47 1 -98 -2 -114 -7z"/>
<path d="M3150 2494 c-22 -58 -4 -145 32 -152 30 -6 58 34 58 82 0 69 -14 96
-50 96 -24 0 -33 -6 -40 -26z"/>
<path d="M2373 2473 c-26 -62 0 -163 42 -163 43 0 68 99 42 163 -13 29 -21 37
-42 37 -21 0 -29 -8 -42 -37z"/>
<path d="M1395 2348 c-35 -19 -85 -71 -85 -89 0 -14 18 -29 35 -29 2 0 20 16
41 35 20 19 40 35 45 35 4 0 31 -20 60 -45 56 -47 58 -49 83 -39 27 11 18 31
-36 77 -81 68 -104 77 -143 55z"/>
<path d="M2930 2251 c0 -11 5 -23 10 -26 20 -12 61 -87 56 -100 -8 -23 -85
-56 -140 -62 -53 -5 -98 9 -138 44 -18 16 -38 10 -38 -11 0 -18 60 -73 93 -85
97 -37 277 34 277 110 0 31 -44 104 -79 128 -36 26 -41 26 -41 2z"/>
<path d="M2991 1840 c-44 -73 -116 -94 -242 -70 -53 10 -72 11 -81 2 -49 -49
195 -85 288 -43 73 33 121 122 73 134 -15 4 -25 -2 -38 -23z"/>
</g>
</svg>
